<svg id="Capa_1" data-name="Capa 1" xmlns="http://www.w3.org/2000/svg" viewBox="0 0 559.08 71.04"><defs><style>.cls-1{fill:#ef5a23;}.cls-2{fill:#f05a28;}.cls-3,.cls-4{fill:none;stroke:#ef5a23;stroke-miterlimit:10;}.cls-3{stroke-width:4px;}.cls-4{stroke-width:2px;}.cls-5{fill:#3873b4;}</style></defs><title>New_logo_Pmorelius2023_web-blue</title><polygon class="cls-1" points="54.02 13.1 54.06 4.07 57.48 4.09 57.44 11.48 54.02 13.1"/><path class="cls-1" d="M53.51,13.9l.05-10.34,4.43,0-.05,8.21Zm1.06-9.32,0,7.72,2.4-1.14,0-6.57Z"/><polygon class="cls-1" points="47.11 16.28 47.16 7.26 50.57 7.27 50.53 14.66 47.11 16.28"/><path class="cls-1" d="M46.6,17.09l0-10.34,4.43,0L51,15Zm1.06-9.32,0,7.71L50,14.34l0-6.56Z"/><polygon class="cls-1" points="69.65 11.48 69.61 4.09 73.02 4.07 73.06 13.1 69.65 11.48"/><path class="cls-1" d="M73.58,13.9l-4.44-2.1,0-8.21,4.43,0Zm-3.43-2.74,2.4,1.14,0-7.72h-2.4Z"/><polygon class="cls-1" points="76.55 14.66 76.51 7.27 79.93 7.26 79.97 16.28 76.55 14.66"/><path class="cls-1" d="M80.48,17.09,76.05,15l0-8.22,4.43,0Zm-3.42-2.75,2.4,1.14,0-7.71H77Z"/><path class="cls-1" d="M114.79,6a3.44,3.44,0,1,1-2.5,4.17A3.44,3.44,0,0,1,114.79,6Zm1.47,5.89A2.63,2.63,0,1,0,113.07,10a2.63,2.63,0,0,0,3.19,1.91Z"/><path class="cls-1" d="M116.67,13.49a4.3,4.3,0,0,1-2.61-8.18v0l1.07-.23a4.3,4.3,0,0,1,1.55,8.44ZM115.19,7.6a1.77,1.77,0,1,0,2.15,1.29A1.77,1.77,0,0,0,115.19,7.6Z"/><path class="cls-1" d="M91,22.62A3.44,3.44,0,1,1,88.5,26.8,3.45,3.45,0,0,1,91,22.62Zm1.47,5.89a2.63,2.63,0,1,0-3.19-1.91,2.62,2.62,0,0,0,3.19,1.91Z"/><path class="cls-1" d="M92.89,30.13A4.3,4.3,0,0,1,90.27,22v0l1.07-.23a4.3,4.3,0,0,1,1.55,8.44Zm-1.48-5.88a1.77,1.77,0,0,0,.86,3.43,1.77,1.77,0,1,0-.86-3.43Z"/><polygon class="cls-1" points="95.58 27.26 94.77 24 106.48 21.07 112.76 10.87 115.62 12.63 108.62 24 95.58 27.26"/><path class="cls-1" d="M95.21,27.88l-1.06-4.24,12-3,6.45-10.46,3.72,2.29-7.38,12Zm.17-3.51L96,26.65l12.35-3.09,6.63-10.77-2-1.22-6.13,10Z"/><path class="cls-1" d="M109.47,42.92a3.44,3.44,0,1,1-2.5,4.17,3.45,3.45,0,0,1,2.5-4.17Zm1.47,5.89a2.63,2.63,0,1,0-3.19-1.91,2.63,2.63,0,0,0,3.19,1.91Z"/><path class="cls-1" d="M111.35,50.43a4.3,4.3,0,0,1-2.61-8.18v0L109.8,42a4.3,4.3,0,0,1,1.55,8.44Zm-1.47-5.89A1.77,1.77,0,1,0,112,45.83,1.77,1.77,0,0,0,109.88,44.54Z"/><path class="cls-1" d="M90.77,51.64a3.44,3.44,0,1,1-2.5,4.17,3.44,3.44,0,0,1,2.5-4.17Zm1.48,5.89a2.63,2.63,0,1,0-3.19-1.91,2.63,2.63,0,0,0,3.19,1.91Z"/><path class="cls-1" d="M92.65,59.15A4.3,4.3,0,0,1,90,51v0l1.07-.23a4.3,4.3,0,0,1,1.55,8.44Zm-1.47-5.89A1.77,1.77,0,1,0,92,56.69a1.77,1.77,0,0,0-.86-3.43Z"/><polygon class="cls-1" points="104.93 66.05 92.59 57.8 94.46 55.01 104.06 61.43 107.63 56.31 108.36 48.31 111.71 48.62 110.89 57.5 104.93 66.05"/><path class="cls-1" d="M105.07,66.75,91.89,57.94l2.43-3.63,9.61,6.42,3.2-4.6.77-8.37,4.36.4-.88,9.52ZM93.3,57.66l11.5,7.69,5.6-8,.75-8.25-2.33-.21-.7,7.63-3.93,5.64L94.6,55.72Z"/><path class="cls-1" d="M119.3,20.86A3.44,3.44,0,1,1,116.8,25a3.44,3.44,0,0,1,2.5-4.17Zm1.48,5.89a2.63,2.63,0,1,0-3.2-1.92,2.65,2.65,0,0,0,3.2,1.92C122.18,26.39,119.37,27.1,120.78,26.75Z"/><path class="cls-1" d="M121.18,28.37a4.3,4.3,0,0,1-2.61-8.18v0l1.07-.23a4.3,4.3,0,0,1,1.55,8.45Zm-1.47-5.89a1.77,1.77,0,1,0,2.14,1.28A1.77,1.77,0,0,0,119.71,22.48Z"/><path class="cls-1" d="M95.31,37.23a3.44,3.44,0,1,1-2.5,4.17,3.44,3.44,0,0,1,2.5-4.17Zm1.47,5.89a2.63,2.63,0,1,0-3.19-1.91,2.63,2.63,0,0,0,3.19,1.91Z"/><path class="cls-1" d="M97.19,44.74a4.3,4.3,0,0,1-2.61-8.18v0l1.07-.23a4.3,4.3,0,0,1,1.55,8.44Zm-1.48-5.89a1.77,1.77,0,1,0,2.15,1.29A1.77,1.77,0,0,0,95.71,38.85Z"/><polygon class="cls-1" points="99.69 41.29 98.64 38.11 110.02 34.34 117.54 25.14 120.14 27.26 112 37.22 99.69 41.29"/><path class="cls-1" d="M99.37,41.93,98,37.78l11.72-3.87,7.74-9.49,3.39,2.77L112.3,37.66Zm-.09-3.5.73,2.22,11.69-3.86,7.72-9.46-1.81-1.48-7.29,8.93Z"/><path class="cls-1" d="M12.3,6a3.44,3.44,0,1,1-4.18,2.5A3.45,3.45,0,0,1,12.3,6Zm-1.48,5.89A2.63,2.63,0,1,0,8.91,8.68a2.64,2.64,0,0,0,1.91,3.19Z"/><path class="cls-1" d="M7.29,8.27A4.3,4.3,0,0,1,12,5.05L13,5.28v0a4.3,4.3,0,1,1-5.74,3Zm2.46.62A1.77,1.77,0,1,0,11.89,7.6,1.76,1.76,0,0,0,9.75,8.89Z"/><path class="cls-1" d="M36.08,22.62a3.44,3.44,0,1,1-4.17,2.51,3.45,3.45,0,0,1,4.17-2.51ZM34.6,28.51a2.63,2.63,0,1,0-1.91-3.19,2.64,2.64,0,0,0,1.91,3.19Z"/><path class="cls-1" d="M31.07,24.92a4.31,4.31,0,0,1,4.68-3.23l1.07.23v0a4.3,4.3,0,1,1-5.74,3Zm2.46.61a1.77,1.77,0,1,0,2.14-1.28A1.77,1.77,0,0,0,33.53,25.53Z"/><polygon class="cls-1" points="31.5 27.26 32.32 24 20.61 21.07 14.32 10.87 11.46 12.63 18.46 24 31.5 27.26"/><path class="cls-1" d="M18.14,24.44l-7.38-12,3.73-2.29,6.44,10.46,12,3-1.06,4.24Zm2.14-2.92-6.13-9.95-2,1.22,6.63,10.77,12.34,3.09.57-2.28Z"/><path class="cls-1" d="M17.61,42.92a3.44,3.44,0,1,1-4.17,2.51,3.45,3.45,0,0,1,4.17-2.51Zm-1.47,5.89a2.63,2.63,0,1,0-1.91-3.19,2.63,2.63,0,0,0,1.91,3.19Z"/><path class="cls-1" d="M12.6,45.22A4.31,4.31,0,0,1,17.28,42l1.07.23v0a4.3,4.3,0,1,1-5.74,3Zm2.46.61a1.77,1.77,0,1,0,2.15-1.29A1.78,1.78,0,0,0,15.06,45.83Z"/><path class="cls-1" d="M36.31,51.64a3.44,3.44,0,1,1-4.17,2.5,3.44,3.44,0,0,1,4.17-2.5Zm-1.47,5.89a2.63,2.63,0,1,0-1.92-3.19,2.63,2.63,0,0,0,1.92,3.19Z"/><path class="cls-1" d="M31.3,53.93A4.3,4.3,0,0,1,36,50.71l1.07.23v0a4.3,4.3,0,1,1-5.74,3Zm2.46.62a1.77,1.77,0,1,0,2.14-1.29A1.76,1.76,0,0,0,33.76,54.55Z"/><polygon class="cls-1" points="22.15 66.05 34.49 57.8 32.62 55.01 23.02 61.43 19.46 56.31 18.72 48.31 15.38 48.62 16.2 57.5 22.15 66.05"/><path class="cls-1" d="M15.7,57.68l-.87-9.52,4.35-.4L20,56.13l3.2,4.6,9.61-6.42,2.43,3.63L22,66.75Zm16.78-2-9.59,6.41L19,56.49l-.71-7.63-2.33.21.76,8.25,5.59,8,11.51-7.69Z"/><path class="cls-1" d="M7.78,20.86a3.44,3.44,0,1,1-4.17,2.5,3.44,3.44,0,0,1,4.17-2.5ZM6.31,26.75a2.63,2.63,0,1,0-1.92-3.2,2.63,2.63,0,0,0,1.92,3.2Z"/><path class="cls-1" d="M2.77,23.15a4.32,4.32,0,0,1,4.68-3.23l1.07.23v0a4.3,4.3,0,1,1-5.74,3Zm2.46.61a1.77,1.77,0,1,0,2.15-1.28A1.77,1.77,0,0,0,5.23,23.76Z"/><path class="cls-1" d="M31.78,37.23a3.44,3.44,0,1,1-4.18,2.5,3.45,3.45,0,0,1,4.18-2.5ZM30.3,43.12a2.63,2.63,0,1,0-1.91-3.19,2.64,2.64,0,0,0,1.91,3.19Z"/><path class="cls-1" d="M26.77,39.52a4.29,4.29,0,0,1,4.67-3.22l1.08.23v0a4.3,4.3,0,1,1-5.74,3Zm2.45.62a1.77,1.77,0,1,0,2.15-1.29A1.78,1.78,0,0,0,29.22,40.14Z"/><polygon class="cls-1" points="27.39 41.29 28.45 38.11 17.07 34.34 9.55 25.14 6.95 27.26 15.09 37.22 27.39 41.29"/><path class="cls-1" d="M14.79,37.66,6.23,27.19l3.39-2.77,7.75,9.49,11.72,3.87-1.38,4.15Zm2-2.88L9.48,25.85,7.66,27.33l7.73,9.46,11.68,3.86.73-2.22Z"/><circle class="cls-2" cx="67.01" cy="31.61" r="2.02"/><polygon class="cls-3" points="82.67 23.43 63.47 14.4 44.24 23.48 39.65 44.34 53.19 60.92 74.34 60.92 87.54 44.26 82.67 23.43"/><polygon class="cls-4" points="75.31 28.93 63.52 23.38 51.71 28.95 48.9 41.76 57.21 51.94 70.19 51.94 78.29 41.71 75.31 28.93"/><path class="cls-5" d="M171.11,4.15a30.24,30.24,0,0,1,12.83,2.71,23.88,23.88,0,0,1,9.35,7.35,16.65,16.65,0,0,1,.05,20.28,23.5,23.5,0,0,1-9.29,7.36,30.38,30.38,0,0,1-12.83,2.7H144.4V63.31h-15V16q0-5.75,3.85-8.78t11.11-3Zm0,28.57a11.54,11.54,0,0,0,7.48-2.49,7.15,7.15,0,0,0,0-11.79A11.63,11.63,0,0,0,171.11,16H144.4V32.72Z"/><path class="cls-5" d="M278.65,61.21a23.16,23.16,0,0,1-9.24-7.31,16.58,16.58,0,0,1,0-20.12,23.08,23.08,0,0,1,9.24-7.31,31.26,31.26,0,0,1,25.44,0,23.86,23.86,0,0,1,9.28,7.31,16.39,16.39,0,0,1,0,20.09,23.58,23.58,0,0,1-9.24,7.31,31.62,31.62,0,0,1-25.48,0Zm19.71-7.86a13,13,0,0,0,5.12-4,9,9,0,0,0,0-11,13,13,0,0,0-5.12-4,16.51,16.51,0,0,0-7-1.49,16.23,16.23,0,0,0-6.95,1.49,13.11,13.11,0,0,0-5.08,4,9,9,0,0,0,0,11,13.11,13.11,0,0,0,5.08,4,16.23,16.23,0,0,0,6.95,1.49A16.51,16.51,0,0,0,298.36,53.35Z"/><path class="cls-5" d="M323.35,36.27a8,8,0,0,1,.49-2.88A6.69,6.69,0,0,1,325.48,31a26.46,26.46,0,0,1,8.67-5.31,30.84,30.84,0,0,1,23.56.84L352,34.39a16.24,16.24,0,0,0-7-1.55,16.79,16.79,0,0,0-5.32.84,13.41,13.41,0,0,0-4.41,2.4,1.05,1.05,0,0,0-.41.9V63.31H323.35Z"/><path class="cls-5" d="M407.86,46.72a5.52,5.52,0,0,1-3.6,1.19l-33.62-.12a12.34,12.34,0,0,0,5.23,5.33,15.93,15.93,0,0,0,8,2.1,18.39,18.39,0,0,0,6-1.13,14.33,14.33,0,0,0,4.87-2.88l11.29,2.59a23.52,23.52,0,0,1-9.33,7.38,31.27,31.27,0,0,1-25.4,0,23.16,23.16,0,0,1-9.24-7.31,16.54,16.54,0,0,1,0-20.09,23.27,23.27,0,0,1,9.24-7.28,31.43,31.43,0,0,1,25.4,0,23.24,23.24,0,0,1,9.2,7.31,16.63,16.63,0,0,1,3.4,10.06A3.56,3.56,0,0,1,407.86,46.72Zm-32.4-11.84a12.13,12.13,0,0,0-5.23,5.92l27.56.13a11.91,11.91,0,0,0-5.15-6,16.38,16.38,0,0,0-8.59-2.45A16.06,16.06,0,0,0,375.46,34.88Z"/><path class="cls-5" d="M427.32,63.31H415.87V11.55h11.45Z"/><path class="cls-5" d="M438.29,17.83a4.42,4.42,0,0,1,0-7.25,7.83,7.83,0,0,1,9.16,0,4.43,4.43,0,0,1,0,7.25,7.78,7.78,0,0,1-9.16,0Zm-1.15,45.48V24.49h11.45V63.31Z"/><path class="cls-5" d="M469.9,61.44a21.47,21.47,0,0,1-8.38-6.64,14.84,14.84,0,0,1-3.11-9.09V24.49h11.45V45.71a7.59,7.59,0,0,0,1.55,4.57,10.7,10.7,0,0,0,4.22,3.33,14.13,14.13,0,0,0,11.53,0,10.67,10.67,0,0,0,4.21-3.33,7.54,7.54,0,0,0,1.56-4.57V24.49h11.45V45.71a14.84,14.84,0,0,1-3.11,9.09,21.47,21.47,0,0,1-8.38,6.64,28.19,28.19,0,0,1-23,0Z"/><path class="cls-5" d="M513.71,63.31V54.25h25.35a4.13,4.13,0,0,0,2.7-.87,2.63,2.63,0,0,0,1.07-2.1,2.52,2.52,0,0,0-1.11-2.07,4.25,4.25,0,0,0-2.66-.84H527.69a17.83,17.83,0,0,1-7.64-1.62,13.73,13.73,0,0,1-5.48-4.37,9.84,9.84,0,0,1,0-12,13.9,13.9,0,0,1,5.52-4.33,17.94,17.94,0,0,1,7.56-1.59h22.5v9.06h-22.5a4.17,4.17,0,0,0-2.61.81,2.47,2.47,0,0,0-1.07,2,2.55,2.55,0,0,0,1.07,2.07,4.06,4.06,0,0,0,2.61.84h11.37a17.87,17.87,0,0,1,7.65,1.62,14.14,14.14,0,0,1,5.52,4.36,9.86,9.86,0,0,1,0,12,14.05,14.05,0,0,1-5.52,4.36,17.87,17.87,0,0,1-7.65,1.62Z"/><path class="cls-5" d="M259.33,59.2a4.13,4.13,0,0,1-1.75,3.35,7.15,7.15,0,0,1-8.47,0,4.14,4.14,0,0,1-1.76-3.35V41.83q0-5.25-4.67-8.94a19.12,19.12,0,0,0-22.61,0q-4.66,3.69-4.67,8.94V59.2a4.14,4.14,0,0,1-1.76,3.35,7.15,7.15,0,0,1-8.47,0,4.14,4.14,0,0,1-1.76-3.35V41.83q0-9.16,8.19-15.64t19.77-6.47q11.59,0,19.78,6.47t8.18,15.64ZM225.38,41.83a4.16,4.16,0,0,1,1.76-3.35,7.15,7.15,0,0,1,8.47,0,4.16,4.16,0,0,1,1.76,3.35V59.2a4.14,4.14,0,0,1-1.76,3.35,7.15,7.15,0,0,1-8.47,0,4.14,4.14,0,0,1-1.76-3.35Z"/><circle class="cls-5" cx="308.68" cy="22.12" r="3.7"/></svg>